<svg width="128" height="48" fill="none" xmlns="http://www.w3.org/2000/svg"><path d="M104.805 2c-12.673 0-21.13 8.961-21.13 21.5 0 12.526 8.47 21.5 21.13 21.5 12.673 0 21.13-8.961 21.13-21.5 0-12.526-8.469-21.5-21.13-21.5zm0 32.769c-3.273 0-8.283-2.124-8.283-11.269 0-9.132 5.022-11.269 8.283-11.269 3.274 0 8.296 2.124 8.296 11.269-.013 9.132-5.035 11.269-8.296 11.269zM68.96 24.94h-.112L55.704 2.978v-.013h-8.246c-2.158 0-3.893 1.722-3.893 3.834v29.497h12.139V23.024L68.6 44.01h8.593c2.145 0 3.894-1.721 3.894-3.834v-37.2h-12.14l.013 21.964zM30.84 2.977c-2.145 0-3.869 1.709-3.869 3.821v18.423c0 4.176 0 9.377-6.039 9.377-6.212 0-6.212-5.201-6.212-9.377V6.799c0-2.112-1.736-3.821-3.869-3.821H1.936v25.04c0 11.318 6.274 16.751 18.934 16.751s18.873-5.433 18.873-16.75V2.976H30.84z" fill="#0096FF"/><path d="M43.565 40.178c0 2.112 1.748 3.833 3.893 3.833h8.246v-5.164h-12.14v1.33z" fill="#0096FF"/><path d="M55.701 3.459l6.684 30.925L55.7 23.506V3.46z" fill="#0378FF"/></svg>
