<svg width="124" height="25" viewBox="0 0 124 25" fill="none" xmlns="http://www.w3.org/2000/svg">
<mask id="mask0_1_2472" style="mask-type:alpha" maskUnits="userSpaceOnUse" x="0" y="2" width="15" height="22">
<path fill-rule="evenodd" clip-rule="evenodd" d="M0 2.29721H14.3611V23.5273H0V2.29721Z" fill="white"/>
</mask>
<g mask="url(#mask0_1_2472)">
<path fill-rule="evenodd" clip-rule="evenodd" d="M14.3612 7.03974V2.29721L3.60918 2.2978C1.61919 2.2978 0 3.89738 0 5.86328V23.5273H5.79266V15.2004H13.129V10.4721H5.79266V7.03974H14.3612Z" fill="#231F20"/>
</g>
<mask id="mask1_1_2472" style="mask-type:alpha" maskUnits="userSpaceOnUse" x="15" y="1" width="7" height="6">
<path fill-rule="evenodd" clip-rule="evenodd" d="M15.8154 1.26331H21.5356V6.91446H15.8154V1.26331Z" fill="white"/>
</mask>
<g mask="url(#mask1_1_2472)">
<path fill-rule="evenodd" clip-rule="evenodd" d="M18.6752 1.26295C17.098 1.26295 15.8154 2.53055 15.8154 4.08871C15.8154 5.64687 17.098 6.91446 18.6752 6.91446C20.2525 6.91446 21.5356 5.64687 21.5356 4.08871C21.5356 2.53055 20.2525 1.26295 18.6752 1.26295" fill="#231F20"/>
</g>
<path fill-rule="evenodd" clip-rule="evenodd" d="M27.3923 2.30147C25.4023 2.30147 23.7837 3.90046 23.7837 5.86636V23.5304H29.3948V2.30147H27.3923Z" fill="#231F20"/>
<path fill-rule="evenodd" clip-rule="evenodd" d="M42.5912 15.4992C42.5912 18.0456 40.9067 18.9499 39.4642 18.9499C37.9085 18.9499 36.3385 17.8829 36.3385 15.4992C36.3385 12.9747 38.0223 12.0787 39.4642 12.0787C40.9067 12.0787 42.5912 12.9747 42.5912 15.4992M45.3982 9.59263C43.8659 8.10666 41.7585 7.28823 39.4642 7.28823C37.1825 7.28823 35.0793 8.10607 33.5434 9.59203C31.9823 11.1017 31.1221 13.1995 31.1221 15.4992C31.1221 20.1973 34.7091 23.7403 39.4642 23.7403C41.7567 23.7403 43.8641 22.9166 45.3988 21.4205C46.9515 19.9068 47.807 17.8036 47.807 15.4992C47.807 13.196 46.9509 11.0981 45.3982 9.59263" fill="#231F20"/>
<path fill-rule="evenodd" clip-rule="evenodd" d="M51.7807 18.1585C50.2256 18.1585 48.9604 19.4083 48.9604 20.9446C48.9604 22.4808 50.2256 23.7307 51.7807 23.7307C53.3364 23.7307 54.601 22.4808 54.601 20.9446C54.601 19.4083 53.3364 18.1585 51.7807 18.1585" fill="#231F20"/>
<path fill-rule="evenodd" clip-rule="evenodd" d="M19.4793 8.0144V8.30023H19.4787V8.0144C17.4893 8.0144 15.8701 9.61399 15.8701 11.5793V23.5273H21.4813V8.0144H19.4793Z" fill="#231F20"/>
<path fill-rule="evenodd" clip-rule="evenodd" d="M66.6488 23.0418H71.1559V13.9479C71.1559 11.8897 70.7576 10.4043 69.9717 9.53144C69.1833 8.65678 68.1033 8.23188 66.6698 8.23188C65.8132 8.23188 65.0278 8.3964 64.3353 8.7207C63.6453 9.0444 63.048 9.52315 62.561 10.1451L62.1135 10.7156L61.8991 8.51121H57.7046V23.0418H62.198V12.7128L62.2501 12.6389C62.7012 12.0027 63.3991 11.6796 64.324 11.6796C64.8319 11.6796 65.2351 11.7329 65.5562 11.8417C65.9132 11.9637 66.1912 12.2039 66.3816 12.5572C66.5614 12.891 66.6488 13.3413 66.6488 13.9337V23.0418ZM71.7352 23.614H66.0696V13.9337C66.0696 13.4443 66.0025 13.0715 65.8701 12.8259C65.7491 12.6016 65.5849 12.4566 65.3675 12.3826C65.1117 12.2956 64.7607 12.2519 64.324 12.2519C63.6255 12.2519 63.1181 12.4631 62.7773 12.8969V23.614H57.126V7.93895H62.4256L62.5562 9.28229C63.0043 8.83254 63.5165 8.47096 64.0873 8.20348C64.8583 7.84249 65.7269 7.65963 66.6698 7.65963C68.256 7.65963 69.5122 8.16146 70.4048 9.15151C71.2871 10.1321 71.7352 11.7453 71.7352 13.9479V23.614Z" fill="#231F20"/>
<path fill-rule="evenodd" clip-rule="evenodd" d="M78.9603 13.9967H82.7282V13.8694C82.7432 13.3623 82.6281 12.9912 82.3754 12.7344C82.0788 12.4326 81.5726 12.2799 80.87 12.2799C80.2572 12.2799 79.8169 12.4474 79.5234 12.7918C79.2658 13.0948 79.0765 13.499 78.9603 13.9967V13.9967ZM83.3075 14.5689H78.2708L78.3235 14.2381C78.4445 13.4818 78.6985 12.8717 79.0801 12.4237C79.4844 11.9485 80.0864 11.7076 80.87 11.7076C81.735 11.7076 82.3813 11.9189 82.7911 12.3355C83.1523 12.703 83.326 13.2238 83.3075 13.8824V14.5689ZM79.0771 17.7373C79.2688 18.1693 79.5527 18.5096 79.9391 18.7717C80.4285 19.1043 81.0509 19.273 81.7883 19.273C82.4287 19.273 83.0433 19.1665 83.6159 18.9558C84.1724 18.7516 84.6523 18.4137 85.0416 17.9521L85.2232 17.7373H79.0771ZM80.9125 8.23212C79.3269 8.23212 77.9808 8.56707 76.9122 9.22809C75.8453 9.88792 75.0402 10.7904 74.5208 11.9106C73.9943 13.0445 73.7277 14.3357 73.7277 15.7483V16.265C73.7277 17.5213 74.0356 18.7025 74.6442 19.7754C75.251 20.8442 76.1472 21.7117 77.3093 22.352C78.475 22.9953 79.8684 23.3208 81.4492 23.3208C82.3394 23.3208 83.1805 23.203 83.9502 22.9704C84.7206 22.7379 85.3963 22.4325 85.9588 22.0638C86.4422 21.7466 86.8394 21.4063 87.1443 21.0489L85.2441 18.5824C84.838 18.9877 84.3594 19.2931 83.8178 19.4919C83.1811 19.7263 82.4976 19.8452 81.7883 19.8452C80.9317 19.8452 80.1985 19.6428 79.6108 19.2434C79.016 18.8398 78.6038 18.2634 78.3882 17.5314L78.2798 17.1651H87.6588V15.3157C87.6588 13.8428 87.3827 12.5569 86.8358 11.4952C86.2948 10.4442 85.5119 9.62991 84.5085 9.07482C83.4967 8.51558 82.2873 8.23212 80.9125 8.23212V8.23212ZM81.4492 23.893C79.7684 23.893 78.2804 23.5427 77.0266 22.8515C75.7704 22.1585 74.7988 21.2176 74.1392 20.0547C73.4815 18.8954 73.1484 17.6207 73.1484 16.265V15.7483C73.1484 14.2529 73.433 12.8812 73.9943 11.6721C74.5616 10.4489 75.4403 9.46362 76.6043 8.74342C77.7676 8.02441 79.2166 7.65987 80.9125 7.65987C82.3879 7.65987 83.6926 7.96759 84.7907 8.57535C85.8965 9.18725 86.7585 10.082 87.3521 11.236C87.9398 12.3793 88.2381 13.7517 88.2381 15.3157V17.7373H85.3214L87.8739 21.0513L87.7421 21.2241C87.3851 21.6951 86.8927 22.1378 86.2793 22.5402C85.67 22.9397 84.9434 23.2687 84.1197 23.5172C83.2949 23.7664 82.3963 23.893 81.4492 23.893V23.893Z" fill="#231F20"/>
<path fill-rule="evenodd" clip-rule="evenodd" d="M101.478 23.0418H105.337L108.667 8.5112H104.444L102.909 17.8909L100.399 8.5112H97.3564L94.7955 18.204L93.3231 8.5112H89.1029L92.4473 23.0418H96.2937L98.9168 14.0633L101.478 23.0418ZM105.799 23.614H101.039L98.9097 16.1493L96.7286 23.614H91.9842L88.3774 7.93895H93.8215L94.9488 15.3587L96.9089 7.93895H100.846L102.773 15.1409L103.951 7.93895H109.392L105.799 23.614Z" fill="#231F20"/>
<mask id="mask2_1_2472" style="mask-type:alpha" maskUnits="userSpaceOnUse" x="109" y="7" width="15" height="17">
<path fill-rule="evenodd" clip-rule="evenodd" d="M109.447 7.65957H123.703V23.893H109.447V7.65957Z" fill="white"/>
</mask>
<g mask="url(#mask2_1_2472)">
<path fill-rule="evenodd" clip-rule="evenodd" d="M110.037 18.7424C110.094 19.4129 110.346 20.0811 110.789 20.732C111.3 21.483 112.056 22.1079 113.037 22.5902C114.023 23.0749 115.214 23.3211 116.575 23.3211C117.887 23.3211 119.053 23.121 120.041 22.7275C121.014 22.3393 121.773 21.8037 122.294 21.1362C122.807 20.4787 123.068 19.7278 123.068 18.9028C123.068 17.9051 122.811 17.0878 122.305 16.4736C121.789 15.8451 121.115 15.364 120.304 15.0438C119.466 14.7142 118.472 14.4591 117.35 14.2863C116.691 14.1834 114.689 13.8715 114.689 12.524C114.689 12.0512 114.896 11.6606 115.288 11.3949C115.651 11.1487 116.084 11.0238 116.575 11.0238C117.319 11.0238 117.835 11.1706 118.153 11.4736C118.422 11.7292 118.578 12.1175 118.619 12.6288H123.116C123.067 11.8162 122.808 11.0901 122.346 10.467C121.825 9.76513 121.066 9.2124 120.091 8.82538C119.099 8.43185 117.921 8.23182 116.589 8.23182C115.319 8.23182 114.21 8.44605 113.292 8.86799C112.384 9.28579 111.684 9.84857 111.213 10.541C110.744 11.2292 110.506 11.995 110.506 12.8169C110.506 14.0023 110.951 14.932 111.867 15.6581C112.807 16.4031 114.074 16.9505 115.633 17.2837C116.42 17.4518 117.032 17.6074 117.45 17.7453C117.902 17.8938 118.221 18.0542 118.427 18.2359C118.662 18.4424 118.786 18.7117 118.786 19.0147C118.786 19.4757 118.586 19.8621 118.207 20.1331C117.852 20.3864 117.35 20.5148 116.716 20.5148C115.947 20.5148 115.333 20.345 114.888 20.01C114.487 19.7088 114.248 19.2833 114.174 18.7424H110.037ZM116.575 23.8933C115.123 23.8933 113.846 23.627 112.779 23.1027C111.707 22.5754 110.875 21.8854 110.308 21.0516C109.737 20.2118 109.447 19.339 109.447 18.4566V18.1702H114.722L114.731 18.4471C114.746 18.9478 114.913 19.3094 115.239 19.555C115.58 19.8124 116.077 19.9432 116.716 19.9432C117.226 19.9432 117.613 19.8509 117.867 19.6692C118.099 19.5041 118.207 19.2958 118.207 19.0147C118.207 18.8738 118.154 18.762 118.042 18.6626C117.943 18.5756 117.728 18.44 117.267 18.288C116.868 18.1566 116.277 18.0069 115.51 17.8423C113.863 17.4902 112.515 16.9056 111.504 16.1043C110.458 15.274 109.927 14.168 109.927 12.8169C109.927 11.879 110.198 11.0061 110.732 10.222C111.264 9.44202 112.042 8.81177 113.047 8.34959C114.043 7.89214 115.234 7.65957 116.589 7.65957C117.994 7.65957 119.246 7.87321 120.307 8.29455C121.384 8.72241 122.228 9.33964 122.813 10.1285C123.403 10.9244 123.703 11.8618 123.703 12.9146V13.201H118.051V12.9146C118.051 12.4216 117.951 12.0749 117.751 11.8855C117.552 11.6961 117.145 11.5955 116.575 11.5955C116.198 11.5955 115.884 11.6843 115.616 11.8665C115.378 12.0275 115.268 12.2364 115.268 12.524C115.268 12.9158 115.644 13.4413 117.439 13.7212C118.605 13.9005 119.641 14.1668 120.518 14.513C121.423 14.8692 122.176 15.4078 122.755 16.1126C123.347 16.8316 123.647 17.7702 123.647 18.9028C123.647 19.8568 123.346 20.7255 122.753 21.4854C122.167 22.2351 121.328 22.8317 120.258 23.2577C119.201 23.6791 117.962 23.8933 116.575 23.8933V23.8933Z" fill="#231F20"/>
</g>
</svg>
