<?xml version="1.0" encoding="utf-8"?>
<!-- Generator: Adobe Illustrator 27.6.1, SVG Export Plug-In . SVG Version: 6.00 Build 0)  -->
<svg version="1.1" baseProfile="tiny" id="Capa_1" xmlns="http://www.w3.org/2000/svg" xmlns:xlink="http://www.w3.org/1999/xlink"
	 x="0px" y="0px" viewBox="0 0 388.7 169.2" overflow="visible" xml:space="preserve">
<rect x="-2142" y="-713.4" width="294" height="294"/>
<rect x="-2435.9" y="-713.4" fill="#E30613" width="294" height="294"/>
<rect x="-2435.9" y="-419.4" width="294" height="294"/>
<g>
	<g>
		<g>
			<path fill="#E30613" d="M-2620.5-376v-24.8l40.5-43.1h-39.4V-468h75.3v23.1l-42.4,44.6h43.1v24.3H-2620.5z"/>
		</g>
		<path d="M-2723.6-422.3c0-10.9,3-20.8,8.2-28.7c-5.4-13.9-18.2-19.8-31.4-19.8c-12.4,0-21.3,4.1-28.5,14.4
			c-4.6-9.1-14.1-14.4-27.2-14.4c-10,0-21.8,5.2-26.5,13.3V-468h-26.8v92h28.1v-52.9c0-8.3,5.4-15.9,15.2-15.9
			c10.2,0,14.8,6.8,14.8,15.6v53.3h27.8v-53.1c0-8.1,5.4-15.7,15.4-15.7c10,0,14.6,6.8,14.6,15.6v53.3h27.2v-14.1
			C-2719.6-398.4-2723.6-409.5-2723.6-422.3z"/>
		<g>
			<path d="M-2620.4-392.5c0,8.3,0.6,14.4,0.7,16.5h-27c-0.2-1.1-0.7-5.2-0.7-8.9c-4.3,6.3-13.5,10.9-24.6,10.9
				c-25.9,0-45.5-20-45.5-48.3c0-27.4,18.5-47.9,44.6-47.9c15.7,0,22.6,5.9,24.8,9.4V-510h27.8V-392.5z M-2668.6-399.1
				c10.9,0,20.7-7.8,20.7-23c0-15.4-9.8-22.8-20.7-22.8c-10.9,0-20.7,7.4-20.7,22.8C-2689.3-406.9-2679.5-399.1-2668.6-399.1z"/>
		</g>
	</g>
	<g>
		<path d="M-2853.9-330h-2v-14h2V-330z"/>
		<path d="M-2835-330h-2l-7.6-11.5v11.5h-1.9v-14h2.6l7,10.8V-344h1.9V-330z"/>
		<path d="M-2825.6-330h-1.9v-14h8.5v1.8h-6.6v4.5h6v1.8h-6V-330z"/>
		<path d="M-2813.8-337c0-1.1,0.2-2.2,0.6-3.1c0.4-0.9,0.9-1.7,1.6-2.3c0.7-0.6,1.4-1.1,2.2-1.4c0.8-0.3,1.7-0.5,2.6-0.5
			c0.9,0,1.8,0.2,2.6,0.5c0.8,0.3,1.6,0.8,2.2,1.4c0.7,0.6,1.2,1.4,1.6,2.3c0.4,0.9,0.6,2,0.6,3.1c0,1.5-0.3,2.8-1,4
			c-0.7,1.1-1.6,2-2.6,2.5c-1.1,0.6-2.2,0.8-3.4,0.8c-1.2,0-2.3-0.3-3.4-0.8c-1.1-0.6-1.9-1.4-2.6-2.5
			C-2813.4-334.2-2813.8-335.5-2813.8-337z M-2810.3-341.1c-1,1-1.5,2.3-1.5,4.1c0,1.7,0.5,3.1,1.5,4.1c1,1,2.2,1.5,3.6,1.5
			c1.4,0,2.6-0.5,3.6-1.5c1-1,1.5-2.3,1.5-4.1c0-1.7-0.5-3.1-1.5-4.1c-1-1-2.2-1.5-3.6-1.5C-2808.1-342.5-2809.3-342-2810.3-341.1z"
			/>
		<path d="M-2785.8-330l-3.2-5.7h-2.1v5.7h-2v-14h5.3c1.3,0,2.3,0.4,3.1,1.2s1.2,1.8,1.2,3c0,1-0.3,1.9-0.9,2.6
			c-0.6,0.7-1.4,1.2-2.5,1.4l3.3,5.9H-2785.8z M-2791.1-337.5h3c0.8,0,1.4-0.2,1.9-0.6c0.5-0.4,0.7-1,0.7-1.7c0-0.7-0.2-1.3-0.7-1.8
			c-0.5-0.4-1.1-0.7-1.9-0.7h-3V-337.5z"/>
		<path d="M-2761.7-330h-1.9v-10.9l-4.8,10.9h-1.8l-4.8-10.9v10.9h-1.9v-14h2.6l5,11.4l5-11.4h2.6V-330z"/>
		<path d="M-2744.6-330l-1.5-3.9h-6.2l-1.5,3.9h-2.1l5.6-14h2.2l5.6,14H-2744.6z M-2749.2-342l-2.4,6.3h4.8L-2749.2-342z"/>
		<path d="M-2731.1-329.7c-1.9,0-3.6-0.7-4.9-2c-1.4-1.3-2.1-3.1-2.1-5.3c0-1.5,0.3-2.8,1-4c0.7-1.1,1.6-2,2.6-2.5
			c1-0.5,2.2-0.8,3.3-0.8c1.6,0,2.9,0.4,4,1.2c1.1,0.8,1.8,1.9,2.2,3.3l-1.8,0.6c-0.3-1.1-0.8-1.9-1.5-2.4c-0.8-0.6-1.7-0.9-2.9-0.9
			c-1.4,0-2.5,0.5-3.5,1.5c-1,1-1.5,2.3-1.5,4.1c0,1.7,0.5,3.1,1.5,4.1c1,1,2.2,1.5,3.5,1.5c1.1,0,2.1-0.3,2.9-0.9s1.3-1.4,1.6-2.4
			l1.7,0.6c-0.4,1.4-1.1,2.5-2.2,3.3C-2728.2-330.1-2729.5-329.7-2731.1-329.7z"/>
		<path d="M-2716.5-330h-2v-14h2V-330z"/>
		<path d="M-2709.9-337c0-1.1,0.2-2.2,0.6-3.1c0.4-0.9,0.9-1.7,1.6-2.3c0.7-0.6,1.4-1.1,2.2-1.4c0.8-0.3,1.7-0.5,2.6-0.5
			c0.9,0,1.8,0.2,2.6,0.5c0.8,0.3,1.6,0.8,2.2,1.4c0.7,0.6,1.2,1.4,1.6,2.3c0.4,0.9,0.6,2,0.6,3.1c0,1.5-0.3,2.8-1,4
			c-0.7,1.1-1.6,2-2.6,2.5c-1.1,0.6-2.2,0.8-3.4,0.8c-1.2,0-2.3-0.3-3.4-0.8c-1.1-0.6-1.9-1.4-2.6-2.5
			C-2709.5-334.2-2709.9-335.5-2709.9-337z M-2706.4-341.1c-1,1-1.5,2.3-1.5,4.1c0,1.7,0.5,3.1,1.5,4.1c1,1,2.2,1.5,3.6,1.5
			c1.4,0,2.6-0.5,3.6-1.5c1-1,1.5-2.3,1.5-4.1c0-1.7-0.5-3.1-1.5-4.1c-1-1-2.2-1.5-3.6-1.5C-2704.2-342.5-2705.4-342-2706.4-341.1z
			 M-2699.3-347.4l-2.7,2.4h-1.9l2-2.4H-2699.3z"/>
		<path d="M-2677.6-330h-2l-7.6-11.5v11.5h-1.9v-14h2.6l7,10.8V-344h1.9V-330z"/>
		<path d="M-2662.1-337c0-1.1,0.2-2.2,0.6-3.1c0.4-0.9,0.9-1.7,1.6-2.3s1.4-1.1,2.2-1.4c0.8-0.3,1.7-0.5,2.6-0.5
			c0.9,0,1.8,0.2,2.6,0.5c0.8,0.3,1.6,0.8,2.2,1.4c0.7,0.6,1.2,1.4,1.6,2.3c0.4,0.9,0.6,2,0.6,3.1c0,2.1-0.7,3.8-2,5.2l1.6,1.8
			l-1.3,1.2l-1.7-1.9c-1.1,0.7-2.3,1-3.7,1c-1.2,0-2.3-0.3-3.4-0.8c-1.1-0.6-1.9-1.4-2.6-2.5C-2661.7-334.2-2662.1-335.5-2662.1-337
			z M-2658.6-341.1c-1,1-1.5,2.3-1.5,4.1c0,1.7,0.5,3.1,1.5,4.1c1,1,2.2,1.5,3.6,1.5c0.9,0,1.7-0.2,2.5-0.6l-2.4-2.7l1.3-1.2
			l2.5,2.8c0.8-1,1.2-2.3,1.2-3.8c0-1.7-0.5-3.1-1.5-4.1c-1-1-2.2-1.5-3.6-1.5C-2656.4-342.5-2657.6-342-2658.6-341.1z"/>
		<path d="M-2632.8-331c-0.9,0.9-2.2,1.3-3.6,1.3c-1.5,0-2.7-0.4-3.6-1.3c-0.9-0.9-1.4-2.1-1.4-3.7v-9.3h1.9v9.2
			c0,1.1,0.3,1.9,0.8,2.5c0.5,0.6,1.3,0.9,2.3,0.9c1,0,1.8-0.3,2.3-0.9s0.8-1.4,0.8-2.5v-9.2h1.9v9.3
			C-2631.4-333.2-2631.9-331.9-2632.8-331z"/>
		<path d="M-2615.6-330h-8.5v-14h8.5v1.8h-6.6v4.3h6v1.8h-6v4.3h6.6V-330z"/>
		<path d="M-2595-332.5l4.3-11.6h2l-5.4,14h-1.9l-5.3-14h2.1L-2595-332.5z"/>
		<path d="M-2574.3-330l-1.5-3.9h-6.2l-1.5,3.9h-2.1l5.6-14h2.2l5.6,14H-2574.3z M-2578.9-342l-2.4,6.3h4.8L-2578.9-342z"/>
		<path d="M-2557.8-330h-8.6v-14h1.9v12.2h6.6V-330z"/>
		<path d="M-2543.3-330h-8.5v-14h8.5v1.8h-6.6v4.3h6v1.8h-6v4.3h6.6V-330z"/>
	</g>
</g>
<g>
	<g>
		<g>
			<path d="M-2241.2-544v-14l22.9-24.4h-22.3V-596h42.6v13.1l-24,25.2h24.4v13.7H-2241.2z"/>
		</g>
		<path fill="#FFFFFF" d="M-2299.5-570.1c0-6.2,1.7-11.8,4.6-16.2c-3-7.9-10.3-11.2-17.8-11.2c-7,0-12,2.3-16.1,8.2
			c-2.6-5.1-8-8.2-15.4-8.2c-5.7,0-12.4,2.9-15,7.5v-6h-15.2v52h15.9v-29.9c0-4.7,3-9,8.6-9c5.8,0,8.4,3.9,8.4,8.8v30.1h15.7v-30
			c0-4.6,3-8.9,8.7-8.9c5.7,0,8.3,3.9,8.3,8.8v30.1h15.4v-8C-2297.3-556.6-2299.5-562.9-2299.5-570.1z"/>
		<g>
			<path fill="#FFFFFF" d="M-2241.2-553.3c0,4.7,0.3,8.2,0.4,9.3h-15.3c-0.1-0.6-0.4-2.9-0.4-5c-2.4,3.6-7.6,6.2-13.9,6.2
				c-14.7,0-25.7-11.3-25.7-27.3c0-15.5,10.5-27.1,25.2-27.1c8.9,0,12.8,3.3,14,5.3v-27.8h15.7V-553.3z M-2268.4-557
				c6.2,0,11.7-4.4,11.7-13c0-8.7-5.5-12.9-11.7-12.9c-6.2,0-11.7,4.2-11.7,12.9C-2280.1-561.4-2274.6-557-2268.4-557z"/>
		</g>
	</g>
	<g>
		<path fill="#FFFFFF" d="M-2373.2-517.9h-1.1v-7.9h1.1V-517.9z"/>
		<path fill="#FFFFFF" d="M-2362.5-517.9h-1.1l-4.3-6.5v6.5h-1.1v-7.9h1.5l4,6.1v-6.1h1.1V-517.9z"/>
		<path fill="#FFFFFF" d="M-2357.2-517.9h-1.1v-7.9h4.8v1h-3.7v2.6h3.4v1h-3.4V-517.9z"/>
		<path fill="#FFFFFF" d="M-2350.5-521.9c0-0.6,0.1-1.2,0.3-1.8c0.2-0.5,0.5-1,0.9-1.3c0.4-0.3,0.8-0.6,1.3-0.8
			c0.5-0.2,1-0.3,1.5-0.3c0.5,0,1,0.1,1.5,0.3c0.5,0.2,0.9,0.4,1.3,0.8c0.4,0.3,0.7,0.8,0.9,1.3c0.2,0.5,0.3,1.1,0.3,1.8
			c0,0.9-0.2,1.6-0.6,2.2c-0.4,0.6-0.9,1.1-1.5,1.4c-0.6,0.3-1.2,0.5-1.9,0.5c-0.7,0-1.3-0.2-1.9-0.5c-0.6-0.3-1.1-0.8-1.5-1.4
			C-2350.3-520.3-2350.5-521.1-2350.5-521.9z M-2348.6-524.2c-0.6,0.5-0.8,1.3-0.8,2.3c0,1,0.3,1.8,0.8,2.3c0.6,0.6,1.2,0.8,2,0.8
			c0.8,0,1.5-0.3,2-0.8c0.6-0.6,0.8-1.3,0.8-2.3c0-1-0.3-1.8-0.8-2.3c-0.6-0.5-1.2-0.8-2-0.8C-2347.3-525-2348-524.8-2348.6-524.2z"
			/>
		<path fill="#FFFFFF" d="M-2334.7-517.9l-1.8-3.2h-1.2v3.2h-1.1v-7.9h3c0.7,0,1.3,0.2,1.8,0.7c0.4,0.5,0.7,1,0.7,1.7
			c0,0.6-0.2,1.1-0.5,1.5c-0.3,0.4-0.8,0.7-1.4,0.8l1.9,3.3H-2334.7z M-2337.7-522.2h1.7c0.4,0,0.8-0.1,1.1-0.4
			c0.3-0.2,0.4-0.6,0.4-1c0-0.4-0.1-0.8-0.4-1c-0.3-0.2-0.6-0.4-1.1-0.4h-1.7V-522.2z"/>
		<path fill="#FFFFFF" d="M-2321.1-517.9h-1.1v-6.2l-2.7,6.2h-1l-2.7-6.2v6.2h-1.1v-7.9h1.5l2.8,6.5l2.8-6.5h1.5V-517.9z"/>
		<path fill="#FFFFFF" d="M-2311.4-517.9l-0.9-2.2h-3.5l-0.8,2.2h-1.2l3.2-7.9h1.3l3.2,7.9H-2311.4z M-2314-524.7l-1.4,3.6h2.7
			L-2314-524.7z"/>
		<path fill="#FFFFFF" d="M-2303.8-517.8c-1.1,0-2-0.4-2.8-1.1c-0.8-0.7-1.2-1.8-1.2-3c0-0.9,0.2-1.6,0.6-2.2
			c0.4-0.6,0.9-1.1,1.5-1.4s1.2-0.5,1.9-0.5c0.9,0,1.7,0.2,2.3,0.7c0.6,0.5,1,1.1,1.2,1.8l-1,0.4c-0.1-0.6-0.4-1.1-0.9-1.4
			c-0.4-0.3-1-0.5-1.6-0.5c-0.8,0-1.4,0.3-2,0.8s-0.8,1.3-0.8,2.3c0,1,0.3,1.8,0.8,2.3s1.2,0.8,2,0.8c0.6,0,1.2-0.2,1.6-0.5
			c0.4-0.3,0.7-0.8,0.9-1.4l1,0.4c-0.2,0.8-0.6,1.4-1.2,1.9C-2302.1-518-2302.9-517.8-2303.8-517.8z"/>
		<path fill="#FFFFFF" d="M-2295.5-517.9h-1.1v-7.9h1.1V-517.9z"/>
		<path fill="#FFFFFF" d="M-2291.8-521.9c0-0.6,0.1-1.2,0.3-1.8c0.2-0.5,0.5-1,0.9-1.3c0.4-0.3,0.8-0.6,1.3-0.8
			c0.5-0.2,1-0.3,1.5-0.3c0.5,0,1,0.1,1.5,0.3c0.5,0.2,0.9,0.4,1.3,0.8c0.4,0.3,0.7,0.8,0.9,1.3c0.2,0.5,0.3,1.1,0.3,1.8
			c0,0.9-0.2,1.6-0.6,2.2c-0.4,0.6-0.9,1.1-1.5,1.4c-0.6,0.3-1.2,0.5-1.9,0.5c-0.7,0-1.3-0.2-1.9-0.5c-0.6-0.3-1.1-0.8-1.5-1.4
			C-2291.6-520.3-2291.8-521.1-2291.8-521.9z M-2289.8-524.2c-0.6,0.5-0.8,1.3-0.8,2.3c0,1,0.3,1.8,0.8,2.3c0.6,0.6,1.2,0.8,2,0.8
			c0.8,0,1.5-0.3,2-0.8c0.6-0.6,0.8-1.3,0.8-2.3c0-1-0.3-1.8-0.8-2.3c-0.6-0.5-1.2-0.8-2-0.8C-2288.6-525-2289.3-524.8-2289.8-524.2
			z M-2285.8-527.8l-1.5,1.3h-1.1l1.1-1.3H-2285.8z"/>
		<path fill="#FFFFFF" d="M-2273.6-517.9h-1.1l-4.3-6.5v6.5h-1.1v-7.9h1.5l4,6.1v-6.1h1.1V-517.9z"/>
		<path fill="#FFFFFF" d="M-2264.8-521.9c0-0.6,0.1-1.2,0.3-1.8c0.2-0.5,0.5-1,0.9-1.3c0.4-0.3,0.8-0.6,1.3-0.8
			c0.5-0.2,1-0.3,1.5-0.3c0.5,0,1,0.1,1.5,0.3c0.5,0.2,0.9,0.4,1.3,0.8c0.4,0.3,0.7,0.8,0.9,1.3c0.2,0.5,0.3,1.1,0.3,1.8
			c0,1.2-0.4,2.2-1.1,2.9l0.9,1l-0.8,0.7l-1-1.1c-0.6,0.4-1.3,0.6-2.1,0.6c-0.7,0-1.3-0.2-1.9-0.5c-0.6-0.3-1.1-0.8-1.5-1.4
			C-2264.6-520.3-2264.8-521.1-2264.8-521.9z M-2262.8-524.2c-0.6,0.5-0.8,1.3-0.8,2.3c0,1,0.3,1.8,0.8,2.3c0.6,0.6,1.2,0.8,2,0.8
			c0.5,0,1-0.1,1.4-0.3l-1.4-1.5l0.8-0.7l1.4,1.6c0.5-0.6,0.7-1.3,0.7-2.2c0-1-0.3-1.8-0.8-2.3c-0.6-0.5-1.2-0.8-2-0.8
			C-2261.6-525-2262.2-524.8-2262.8-524.2z"/>
		<path fill="#FFFFFF" d="M-2248.2-518.5c-0.5,0.5-1.2,0.8-2.1,0.8s-1.5-0.3-2.1-0.8s-0.8-1.2-0.8-2.1v-5.2h1.1v5.2
			c0,0.6,0.2,1.1,0.5,1.4c0.3,0.3,0.7,0.5,1.3,0.5c0.6,0,1-0.2,1.3-0.5c0.3-0.3,0.5-0.8,0.5-1.4v-5.2h1.1v5.2
			C-2247.4-519.7-2247.7-519-2248.2-518.5z"/>
		<path fill="#FFFFFF" d="M-2238.5-517.9h-4.8v-7.9h4.8v1h-3.7v2.4h3.4v1h-3.4v2.4h3.7V-517.9z"/>
		<path fill="#FFFFFF" d="M-2226.8-519.3l2.4-6.5h1.2l-3.1,7.9h-1.1l-3-7.9h1.2L-2226.8-519.3z"/>
		<path fill="#FFFFFF" d="M-2215.1-517.9l-0.9-2.2h-3.5l-0.8,2.2h-1.2l3.2-7.9h1.3l3.2,7.9H-2215.1z M-2217.7-524.7l-1.4,3.6h2.7
			L-2217.7-524.7z"/>
		<path fill="#FFFFFF" d="M-2205.8-517.9h-4.9v-7.9h1.1v6.9h3.8V-517.9z"/>
		<path fill="#FFFFFF" d="M-2197.6-517.9h-4.8v-7.9h4.8v1h-3.7v2.4h3.4v1h-3.4v2.4h3.7V-517.9z"/>
	</g>
</g>
<g>
	<g>
		<g>
			<path fill="#FFFFFF" d="M-2241.2-253.1v-14l22.9-24.4h-22.3v-13.6h42.6v13.1l-24,25.2h24.4v13.7H-2241.2z"/>
		</g>
		<path fill="#FFFFFF" d="M-2299.5-279.2c0-6.2,1.7-11.8,4.6-16.2c-3-7.9-10.3-11.2-17.8-11.2c-7,0-12,2.3-16.1,8.2
			c-2.6-5.1-8-8.2-15.4-8.2c-5.7,0-12.4,2.9-15,7.5v-6h-15.2v52h15.9V-283c0-4.7,3-9,8.6-9c5.8,0,8.4,3.9,8.4,8.8v30.1h15.7v-30
			c0-4.6,3-8.9,8.7-8.9c5.7,0,8.3,3.9,8.3,8.8v30.1h15.4v-8C-2297.3-265.7-2299.5-272-2299.5-279.2z"/>
		<g>
			<path fill="#FFFFFF" d="M-2241.2-262.4c0,4.7,0.3,8.2,0.4,9.3h-15.3c-0.1-0.6-0.4-2.9-0.4-5c-2.4,3.6-7.6,6.2-13.9,6.2
				c-14.7,0-25.7-11.3-25.7-27.3c0-15.5,10.5-27.1,25.2-27.1c8.9,0,12.8,3.3,14,5.3v-27.8h15.7V-262.4z M-2268.4-266.2
				c6.2,0,11.7-4.4,11.7-13c0-8.7-5.5-12.9-11.7-12.9c-6.2,0-11.7,4.2-11.7,12.9C-2280.1-270.6-2274.6-266.2-2268.4-266.2z"/>
		</g>
	</g>
	<g>
		<path fill="#FFFFFF" d="M-2373.2-227.1h-1.1v-7.9h1.1V-227.1z"/>
		<path fill="#FFFFFF" d="M-2362.5-227.1h-1.1l-4.3-6.5v6.5h-1.1v-7.9h1.5l4,6.1v-6.1h1.1V-227.1z"/>
		<path fill="#FFFFFF" d="M-2357.2-227.1h-1.1v-7.9h4.8v1h-3.7v2.6h3.4v1h-3.4V-227.1z"/>
		<path fill="#FFFFFF" d="M-2350.5-231c0-0.6,0.1-1.2,0.3-1.8c0.2-0.5,0.5-1,0.9-1.3c0.4-0.3,0.8-0.6,1.3-0.8c0.5-0.2,1-0.3,1.5-0.3
			c0.5,0,1,0.1,1.5,0.3c0.5,0.2,0.9,0.4,1.3,0.8c0.4,0.3,0.7,0.8,0.9,1.3c0.2,0.5,0.3,1.1,0.3,1.8c0,0.9-0.2,1.6-0.6,2.2
			c-0.4,0.6-0.9,1.1-1.5,1.4c-0.6,0.3-1.2,0.5-1.9,0.5c-0.7,0-1.3-0.2-1.9-0.5c-0.6-0.3-1.1-0.8-1.5-1.4
			C-2350.3-229.4-2350.5-230.2-2350.5-231z M-2348.6-233.3c-0.6,0.5-0.8,1.3-0.8,2.3c0,1,0.3,1.8,0.8,2.3c0.6,0.6,1.2,0.8,2,0.8
			c0.8,0,1.5-0.3,2-0.8c0.6-0.6,0.8-1.3,0.8-2.3c0-1-0.3-1.8-0.8-2.3c-0.6-0.5-1.2-0.8-2-0.8C-2347.3-234.2-2348-233.9-2348.6-233.3
			z"/>
		<path fill="#FFFFFF" d="M-2334.7-227.1l-1.8-3.2h-1.2v3.2h-1.1v-7.9h3c0.7,0,1.3,0.2,1.8,0.7c0.4,0.5,0.7,1,0.7,1.7
			c0,0.6-0.2,1.1-0.5,1.5c-0.3,0.4-0.8,0.7-1.4,0.8l1.9,3.3H-2334.7z M-2337.7-231.3h1.7c0.4,0,0.8-0.1,1.1-0.4
			c0.3-0.2,0.4-0.6,0.4-1c0-0.4-0.1-0.8-0.4-1c-0.3-0.2-0.6-0.4-1.1-0.4h-1.7V-231.3z"/>
		<path fill="#FFFFFF" d="M-2321.1-227.1h-1.1v-6.2l-2.7,6.2h-1l-2.7-6.2v6.2h-1.1v-7.9h1.5l2.8,6.5l2.8-6.5h1.5V-227.1z"/>
		<path fill="#FFFFFF" d="M-2311.4-227.1l-0.9-2.2h-3.5l-0.8,2.2h-1.2l3.2-7.9h1.3l3.2,7.9H-2311.4z M-2314-233.9l-1.4,3.6h2.7
			L-2314-233.9z"/>
		<path fill="#FFFFFF" d="M-2303.8-226.9c-1.1,0-2-0.4-2.8-1.1c-0.8-0.7-1.2-1.8-1.2-3c0-0.9,0.2-1.6,0.6-2.2
			c0.4-0.6,0.9-1.1,1.5-1.4s1.2-0.5,1.9-0.5c0.9,0,1.7,0.2,2.3,0.7c0.6,0.5,1,1.1,1.2,1.8l-1,0.4c-0.1-0.6-0.4-1.1-0.9-1.4
			c-0.4-0.3-1-0.5-1.6-0.5c-0.8,0-1.4,0.3-2,0.8s-0.8,1.3-0.8,2.3c0,1,0.3,1.8,0.8,2.3s1.2,0.8,2,0.8c0.6,0,1.2-0.2,1.6-0.5
			c0.4-0.3,0.7-0.8,0.9-1.4l1,0.4c-0.2,0.8-0.6,1.4-1.2,1.9S-2302.9-226.9-2303.8-226.9z"/>
		<path fill="#FFFFFF" d="M-2295.5-227.1h-1.1v-7.9h1.1V-227.1z"/>
		<path fill="#FFFFFF" d="M-2291.8-231c0-0.6,0.1-1.2,0.3-1.8c0.2-0.5,0.5-1,0.9-1.3c0.4-0.3,0.8-0.6,1.3-0.8c0.5-0.2,1-0.3,1.5-0.3
			c0.5,0,1,0.1,1.5,0.3c0.5,0.2,0.9,0.4,1.3,0.8c0.4,0.3,0.7,0.8,0.9,1.3c0.2,0.5,0.3,1.1,0.3,1.8c0,0.9-0.2,1.6-0.6,2.2
			c-0.4,0.6-0.9,1.1-1.5,1.4c-0.6,0.3-1.2,0.5-1.9,0.5c-0.7,0-1.3-0.2-1.9-0.5c-0.6-0.3-1.1-0.8-1.5-1.4
			C-2291.6-229.4-2291.8-230.2-2291.8-231z M-2289.8-233.3c-0.6,0.5-0.8,1.3-0.8,2.3c0,1,0.3,1.8,0.8,2.3c0.6,0.6,1.2,0.8,2,0.8
			c0.8,0,1.5-0.3,2-0.8c0.6-0.6,0.8-1.3,0.8-2.3c0-1-0.3-1.8-0.8-2.3c-0.6-0.5-1.2-0.8-2-0.8
			C-2288.6-234.2-2289.3-233.9-2289.8-233.3z M-2285.8-236.9l-1.5,1.3h-1.1l1.1-1.3H-2285.8z"/>
		<path fill="#FFFFFF" d="M-2273.6-227.1h-1.1l-4.3-6.5v6.5h-1.1v-7.9h1.5l4,6.1v-6.1h1.1V-227.1z"/>
		<path fill="#FFFFFF" d="M-2264.8-231c0-0.6,0.1-1.2,0.3-1.8c0.2-0.5,0.5-1,0.9-1.3c0.4-0.3,0.8-0.6,1.3-0.8c0.5-0.2,1-0.3,1.5-0.3
			c0.5,0,1,0.1,1.5,0.3c0.5,0.2,0.9,0.4,1.3,0.8c0.4,0.3,0.7,0.8,0.9,1.3c0.2,0.5,0.3,1.1,0.3,1.8c0,1.2-0.4,2.2-1.1,2.9l0.9,1
			l-0.8,0.7l-1-1.1c-0.6,0.4-1.3,0.6-2.1,0.6c-0.7,0-1.3-0.2-1.9-0.5c-0.6-0.3-1.1-0.8-1.5-1.4
			C-2264.6-229.4-2264.8-230.2-2264.8-231z M-2262.8-233.3c-0.6,0.5-0.8,1.3-0.8,2.3c0,1,0.3,1.8,0.8,2.3c0.6,0.6,1.2,0.8,2,0.8
			c0.5,0,1-0.1,1.4-0.3l-1.4-1.5l0.8-0.7l1.4,1.6c0.5-0.6,0.7-1.3,0.7-2.2c0-1-0.3-1.8-0.8-2.3c-0.6-0.5-1.2-0.8-2-0.8
			C-2261.6-234.2-2262.2-233.9-2262.8-233.3z"/>
		<path fill="#FFFFFF" d="M-2248.2-227.7c-0.5,0.5-1.2,0.8-2.1,0.8s-1.5-0.3-2.1-0.8c-0.5-0.5-0.8-1.2-0.8-2.1v-5.2h1.1v5.2
			c0,0.6,0.2,1.1,0.5,1.4c0.3,0.3,0.7,0.5,1.3,0.5c0.6,0,1-0.2,1.3-0.5c0.3-0.3,0.5-0.8,0.5-1.4v-5.2h1.1v5.2
			C-2247.4-228.9-2247.7-228.2-2248.2-227.7z"/>
		<path fill="#FFFFFF" d="M-2238.5-227.1h-4.8v-7.9h4.8v1h-3.7v2.4h3.4v1h-3.4v2.4h3.7V-227.1z"/>
		<path fill="#FFFFFF" d="M-2226.8-228.5l2.4-6.5h1.2l-3.1,7.9h-1.1l-3-7.9h1.2L-2226.8-228.5z"/>
		<path fill="#FFFFFF" d="M-2215.1-227.1l-0.9-2.2h-3.5l-0.8,2.2h-1.2l3.2-7.9h1.3l3.2,7.9H-2215.1z M-2217.7-233.9l-1.4,3.6h2.7
			L-2217.7-233.9z"/>
		<path fill="#FFFFFF" d="M-2205.8-227.1h-4.9v-7.9h1.1v6.9h3.8V-227.1z"/>
		<path fill="#FFFFFF" d="M-2197.6-227.1h-4.8v-7.9h4.8v1h-3.7v2.4h3.4v1h-3.4v2.4h3.7V-227.1z"/>
	</g>
</g>
<g>
	<g>
		<g>
			<path fill="#575756" d="M-1950.3-253.1v-14l22.9-24.4h-22.3v-13.6h42.6v13.1l-24,25.2h24.4v13.7H-1950.3z"/>
		</g>
		<path fill="#575756" d="M-2008.6-279.2c0-6.2,1.7-11.8,4.6-16.2c-3-7.9-10.3-11.2-17.8-11.2c-7,0-12,2.3-16.1,8.2
			c-2.6-5.1-8-8.2-15.4-8.2c-5.7,0-12.4,2.9-15,7.5v-6h-15.2v52h15.9V-283c0-4.7,3-9,8.6-9c5.8,0,8.4,3.9,8.4,8.8v30.1h15.7v-30
			c0-4.6,3-8.9,8.7-8.9c5.7,0,8.3,3.9,8.3,8.8v30.1h15.4v-8C-2006.3-265.7-2008.6-272-2008.6-279.2z"/>
		<g>
			<path fill="#575756" d="M-1950.3-262.4c0,4.7,0.3,8.2,0.4,9.3h-15.3c-0.1-0.6-0.4-2.9-0.4-5c-2.4,3.6-7.6,6.2-13.9,6.2
				c-14.7,0-25.7-11.3-25.7-27.3c0-15.5,10.5-27.1,25.2-27.1c8.9,0,12.8,3.3,14,5.3v-27.8h15.7V-262.4z M-1977.5-266.2
				c6.2,0,11.7-4.4,11.7-13c0-8.7-5.5-12.9-11.7-12.9c-6.2,0-11.7,4.2-11.7,12.9C-1989.2-270.6-1983.6-266.2-1977.5-266.2z"/>
		</g>
	</g>
	<g>
		<path fill="#575756" d="M-2082.2-227.1h-1.1v-7.9h1.1V-227.1z"/>
		<path fill="#575756" d="M-2071.5-227.1h-1.1l-4.3-6.5v6.5h-1.1v-7.9h1.5l4,6.1v-6.1h1.1V-227.1z"/>
		<path fill="#575756" d="M-2066.3-227.1h-1.1v-7.9h4.8v1h-3.7v2.6h3.4v1h-3.4V-227.1z"/>
		<path fill="#575756" d="M-2059.6-231c0-0.6,0.1-1.2,0.3-1.8c0.2-0.5,0.5-1,0.9-1.3c0.4-0.3,0.8-0.6,1.3-0.8c0.5-0.2,1-0.3,1.5-0.3
			c0.5,0,1,0.1,1.5,0.3c0.5,0.2,0.9,0.4,1.3,0.8c0.4,0.3,0.7,0.8,0.9,1.3c0.2,0.5,0.3,1.1,0.3,1.8c0,0.9-0.2,1.6-0.6,2.2
			c-0.4,0.6-0.9,1.1-1.5,1.4c-0.6,0.3-1.2,0.5-1.9,0.5c-0.7,0-1.3-0.2-1.9-0.5c-0.6-0.3-1.1-0.8-1.5-1.4
			C-2059.4-229.4-2059.6-230.2-2059.6-231z M-2057.6-233.3c-0.6,0.5-0.8,1.3-0.8,2.3c0,1,0.3,1.8,0.8,2.3c0.6,0.6,1.2,0.8,2,0.8
			c0.8,0,1.5-0.3,2-0.8c0.6-0.6,0.8-1.3,0.8-2.3c0-1-0.3-1.8-0.8-2.3c-0.6-0.5-1.2-0.8-2-0.8C-2056.4-234.2-2057-233.9-2057.6-233.3
			z"/>
		<path fill="#575756" d="M-2043.7-227.1l-1.8-3.2h-1.2v3.2h-1.1v-7.9h3c0.7,0,1.3,0.2,1.8,0.7c0.4,0.5,0.7,1,0.7,1.7
			c0,0.6-0.2,1.1-0.5,1.5c-0.3,0.4-0.8,0.7-1.4,0.8l1.9,3.3H-2043.7z M-2046.8-231.3h1.7c0.4,0,0.8-0.1,1.1-0.4
			c0.3-0.2,0.4-0.6,0.4-1c0-0.4-0.1-0.8-0.4-1c-0.3-0.2-0.6-0.4-1.1-0.4h-1.7V-231.3z"/>
		<path fill="#575756" d="M-2030.1-227.1h-1.1v-6.2l-2.7,6.2h-1l-2.7-6.2v6.2h-1.1v-7.9h1.5l2.8,6.5l2.8-6.5h1.5V-227.1z"/>
		<path fill="#575756" d="M-2020.4-227.1l-0.9-2.2h-3.5l-0.8,2.2h-1.2l3.2-7.9h1.3l3.2,7.9H-2020.4z M-2023.1-233.9l-1.4,3.6h2.7
			L-2023.1-233.9z"/>
		<path fill="#575756" d="M-2012.8-226.9c-1.1,0-2-0.4-2.8-1.1c-0.8-0.7-1.2-1.8-1.2-3c0-0.9,0.2-1.6,0.6-2.2s0.9-1.1,1.5-1.4
			c0.6-0.3,1.2-0.5,1.9-0.5c0.9,0,1.7,0.2,2.3,0.7c0.6,0.5,1,1.1,1.2,1.8l-1,0.4c-0.1-0.6-0.4-1.1-0.9-1.4c-0.4-0.3-1-0.5-1.6-0.5
			c-0.8,0-1.4,0.3-2,0.8s-0.8,1.3-0.8,2.3c0,1,0.3,1.8,0.8,2.3s1.2,0.8,2,0.8c0.6,0,1.2-0.2,1.6-0.5c0.4-0.3,0.7-0.8,0.9-1.4l1,0.4
			c-0.2,0.8-0.6,1.4-1.2,1.9C-2011.2-227.1-2011.9-226.9-2012.8-226.9z"/>
		<path fill="#575756" d="M-2004.5-227.1h-1.1v-7.9h1.1V-227.1z"/>
		<path fill="#575756" d="M-2000.8-231c0-0.6,0.1-1.2,0.3-1.8c0.2-0.5,0.5-1,0.9-1.3c0.4-0.3,0.8-0.6,1.3-0.8c0.5-0.2,1-0.3,1.5-0.3
			c0.5,0,1,0.1,1.5,0.3c0.5,0.2,0.9,0.4,1.3,0.8c0.4,0.3,0.7,0.8,0.9,1.3c0.2,0.5,0.3,1.1,0.3,1.8c0,0.9-0.2,1.6-0.6,2.2
			c-0.4,0.6-0.9,1.1-1.5,1.4c-0.6,0.3-1.2,0.5-1.9,0.5s-1.3-0.2-1.9-0.5c-0.6-0.3-1.1-0.8-1.5-1.4
			C-2000.6-229.4-2000.8-230.2-2000.8-231z M-1998.9-233.3c-0.6,0.5-0.8,1.3-0.8,2.3c0,1,0.3,1.8,0.8,2.3s1.2,0.8,2,0.8
			c0.8,0,1.5-0.3,2-0.8s0.8-1.3,0.8-2.3c0-1-0.3-1.8-0.8-2.3s-1.2-0.8-2-0.8C-1997.6-234.2-1998.3-233.9-1998.9-233.3z
			 M-1994.9-236.9l-1.5,1.3h-1.1l1.1-1.3H-1994.9z"/>
		<path fill="#575756" d="M-1982.6-227.1h-1.1l-4.3-6.5v6.5h-1.1v-7.9h1.5l4,6.1v-6.1h1.1V-227.1z"/>
		<path fill="#575756" d="M-1973.8-231c0-0.6,0.1-1.2,0.3-1.8c0.2-0.5,0.5-1,0.9-1.3c0.4-0.3,0.8-0.6,1.3-0.8c0.5-0.2,1-0.3,1.5-0.3
			c0.5,0,1,0.1,1.5,0.3c0.5,0.2,0.9,0.4,1.3,0.8c0.4,0.3,0.7,0.8,0.9,1.3c0.2,0.5,0.3,1.1,0.3,1.8c0,1.2-0.4,2.2-1.1,2.9l0.9,1
			l-0.8,0.7l-1-1.1c-0.6,0.4-1.3,0.6-2.1,0.6c-0.7,0-1.3-0.2-1.9-0.5c-0.6-0.3-1.1-0.8-1.5-1.4
			C-1973.6-229.4-1973.8-230.2-1973.8-231z M-1971.8-233.3c-0.6,0.5-0.8,1.3-0.8,2.3c0,1,0.3,1.8,0.8,2.3s1.2,0.8,2,0.8
			c0.5,0,1-0.1,1.4-0.3l-1.4-1.5l0.8-0.7l1.4,1.6c0.5-0.6,0.7-1.3,0.7-2.2c0-1-0.3-1.8-0.8-2.3s-1.2-0.8-2-0.8
			C-1970.6-234.2-1971.3-233.9-1971.8-233.3z"/>
		<path fill="#575756" d="M-1957.3-227.7c-0.5,0.5-1.2,0.8-2.1,0.8c-0.8,0-1.5-0.3-2.1-0.8c-0.5-0.5-0.8-1.2-0.8-2.1v-5.2h1.1v5.2
			c0,0.6,0.2,1.1,0.5,1.4c0.3,0.3,0.7,0.5,1.3,0.5c0.6,0,1-0.2,1.3-0.5c0.3-0.3,0.5-0.8,0.5-1.4v-5.2h1.1v5.2
			C-1956.4-228.9-1956.7-228.2-1957.3-227.7z"/>
		<path fill="#575756" d="M-1947.5-227.1h-4.8v-7.9h4.8v1h-3.7v2.4h3.4v1h-3.4v2.4h3.7V-227.1z"/>
		<path fill="#575756" d="M-1935.9-228.5l2.4-6.5h1.2l-3.1,7.9h-1.1l-3-7.9h1.2L-1935.9-228.5z"/>
		<path fill="#575756" d="M-1924.2-227.1l-0.9-2.2h-3.5l-0.8,2.2h-1.2l3.2-7.9h1.3l3.2,7.9H-1924.2z M-1926.8-233.9l-1.4,3.6h2.7
			L-1926.8-233.9z"/>
		<path fill="#575756" d="M-1914.8-227.1h-4.9v-7.9h1.1v6.9h3.8V-227.1z"/>
		<path fill="#575756" d="M-1906.6-227.1h-4.8v-7.9h4.8v1h-3.7v2.4h3.4v1h-3.4v2.4h3.7V-227.1z"/>
	</g>
</g>
<g>
	<g>
		<g>
			<path fill="#E30613" d="M-1950.3-544v-14l22.9-24.4h-22.3V-596h42.6v13.1l-24,25.2h24.4v13.7H-1950.3z"/>
		</g>
		<path fill="#FFFFFF" d="M-2008.6-570.1c0-6.2,1.7-11.8,4.6-16.2c-3-7.9-10.3-11.2-17.8-11.2c-7,0-12,2.3-16.1,8.2
			c-2.6-5.1-8-8.2-15.4-8.2c-5.7,0-12.4,2.9-15,7.5v-6h-15.2v52h15.9v-29.9c0-4.7,3-9,8.6-9c5.8,0,8.4,3.9,8.4,8.8v30.1h15.7v-30
			c0-4.6,3-8.9,8.7-8.9c5.7,0,8.3,3.9,8.3,8.8v30.1h15.4v-8C-2006.3-556.6-2008.6-562.9-2008.6-570.1z"/>
		<g>
			<path fill="#FFFFFF" d="M-1950.3-553.3c0,4.7,0.3,8.2,0.4,9.3h-15.3c-0.1-0.6-0.4-2.9-0.4-5c-2.4,3.6-7.6,6.2-13.9,6.2
				c-14.7,0-25.7-11.3-25.7-27.3c0-15.5,10.5-27.1,25.2-27.1c8.9,0,12.8,3.3,14,5.3v-27.8h15.7V-553.3z M-1977.5-557
				c6.2,0,11.7-4.4,11.7-13c0-8.7-5.5-12.9-11.7-12.9c-6.2,0-11.7,4.2-11.7,12.9C-1989.2-561.4-1983.6-557-1977.5-557z"/>
		</g>
	</g>
	<g>
		<path fill="#FFFFFF" d="M-2082.2-517.9h-1.1v-7.9h1.1V-517.9z"/>
		<path fill="#FFFFFF" d="M-2071.5-517.9h-1.1l-4.3-6.5v6.5h-1.1v-7.9h1.5l4,6.1v-6.1h1.1V-517.9z"/>
		<path fill="#FFFFFF" d="M-2066.3-517.9h-1.1v-7.9h4.8v1h-3.7v2.6h3.4v1h-3.4V-517.9z"/>
		<path fill="#FFFFFF" d="M-2059.6-521.9c0-0.6,0.1-1.2,0.3-1.8c0.2-0.5,0.5-1,0.9-1.3c0.4-0.3,0.8-0.6,1.3-0.8
			c0.5-0.2,1-0.3,1.5-0.3c0.5,0,1,0.1,1.5,0.3c0.5,0.2,0.9,0.4,1.3,0.8c0.4,0.3,0.7,0.8,0.9,1.3c0.2,0.5,0.3,1.1,0.3,1.8
			c0,0.9-0.2,1.6-0.6,2.2c-0.4,0.6-0.9,1.1-1.5,1.4c-0.6,0.3-1.2,0.5-1.9,0.5c-0.7,0-1.3-0.2-1.9-0.5c-0.6-0.3-1.1-0.8-1.5-1.4
			C-2059.4-520.3-2059.6-521.1-2059.6-521.9z M-2057.6-524.2c-0.6,0.5-0.8,1.3-0.8,2.3c0,1,0.3,1.8,0.8,2.3c0.6,0.6,1.2,0.8,2,0.8
			c0.8,0,1.5-0.3,2-0.8c0.6-0.6,0.8-1.3,0.8-2.3c0-1-0.3-1.8-0.8-2.3c-0.6-0.5-1.2-0.8-2-0.8C-2056.4-525-2057-524.8-2057.6-524.2z"
			/>
		<path fill="#FFFFFF" d="M-2043.7-517.9l-1.8-3.2h-1.2v3.2h-1.1v-7.9h3c0.7,0,1.3,0.2,1.8,0.7c0.4,0.5,0.7,1,0.7,1.7
			c0,0.6-0.2,1.1-0.5,1.5c-0.3,0.4-0.8,0.7-1.4,0.8l1.9,3.3H-2043.7z M-2046.8-522.2h1.7c0.4,0,0.8-0.1,1.1-0.4
			c0.3-0.2,0.4-0.6,0.4-1c0-0.4-0.1-0.8-0.4-1c-0.3-0.2-0.6-0.4-1.1-0.4h-1.7V-522.2z"/>
		<path fill="#FFFFFF" d="M-2030.1-517.9h-1.1v-6.2l-2.7,6.2h-1l-2.7-6.2v6.2h-1.1v-7.9h1.5l2.8,6.5l2.8-6.5h1.5V-517.9z"/>
		<path fill="#FFFFFF" d="M-2020.4-517.9l-0.9-2.2h-3.5l-0.8,2.2h-1.2l3.2-7.9h1.3l3.2,7.9H-2020.4z M-2023.1-524.7l-1.4,3.6h2.7
			L-2023.1-524.7z"/>
		<path fill="#FFFFFF" d="M-2012.8-517.8c-1.1,0-2-0.4-2.8-1.1c-0.8-0.7-1.2-1.8-1.2-3c0-0.9,0.2-1.6,0.6-2.2s0.9-1.1,1.5-1.4
			c0.6-0.3,1.2-0.5,1.9-0.5c0.9,0,1.7,0.2,2.3,0.7c0.6,0.5,1,1.1,1.2,1.8l-1,0.4c-0.1-0.6-0.4-1.1-0.9-1.4c-0.4-0.3-1-0.5-1.6-0.5
			c-0.8,0-1.4,0.3-2,0.8s-0.8,1.3-0.8,2.3c0,1,0.3,1.8,0.8,2.3s1.2,0.8,2,0.8c0.6,0,1.2-0.2,1.6-0.5c0.4-0.3,0.7-0.8,0.9-1.4l1,0.4
			c-0.2,0.8-0.6,1.4-1.2,1.9C-2011.2-518-2011.9-517.8-2012.8-517.8z"/>
		<path fill="#FFFFFF" d="M-2004.5-517.9h-1.1v-7.9h1.1V-517.9z"/>
		<path fill="#FFFFFF" d="M-2000.8-521.9c0-0.6,0.1-1.2,0.3-1.8c0.2-0.5,0.5-1,0.9-1.3c0.4-0.3,0.8-0.6,1.3-0.8
			c0.5-0.2,1-0.3,1.5-0.3c0.5,0,1,0.1,1.5,0.3c0.5,0.2,0.9,0.4,1.3,0.8c0.4,0.3,0.7,0.8,0.9,1.3c0.2,0.5,0.3,1.1,0.3,1.8
			c0,0.9-0.2,1.6-0.6,2.2c-0.4,0.6-0.9,1.1-1.5,1.4c-0.6,0.3-1.2,0.5-1.9,0.5s-1.3-0.2-1.9-0.5c-0.6-0.3-1.1-0.8-1.5-1.4
			C-2000.6-520.3-2000.8-521.1-2000.8-521.9z M-1998.9-524.2c-0.6,0.5-0.8,1.3-0.8,2.3c0,1,0.3,1.8,0.8,2.3s1.2,0.8,2,0.8
			c0.8,0,1.5-0.3,2-0.8s0.8-1.3,0.8-2.3c0-1-0.3-1.8-0.8-2.3s-1.2-0.8-2-0.8C-1997.6-525-1998.3-524.8-1998.9-524.2z M-1994.9-527.8
			l-1.5,1.3h-1.1l1.1-1.3H-1994.9z"/>
		<path fill="#FFFFFF" d="M-1982.6-517.9h-1.1l-4.3-6.5v6.5h-1.1v-7.9h1.5l4,6.1v-6.1h1.1V-517.9z"/>
		<path fill="#FFFFFF" d="M-1973.8-521.9c0-0.6,0.1-1.2,0.3-1.8c0.2-0.5,0.5-1,0.9-1.3c0.4-0.3,0.8-0.6,1.3-0.8
			c0.5-0.2,1-0.3,1.5-0.3c0.5,0,1,0.1,1.5,0.3c0.5,0.2,0.9,0.4,1.3,0.8c0.4,0.3,0.7,0.8,0.9,1.3c0.2,0.5,0.3,1.1,0.3,1.8
			c0,1.2-0.4,2.2-1.1,2.9l0.9,1l-0.8,0.7l-1-1.1c-0.6,0.4-1.3,0.6-2.1,0.6c-0.7,0-1.3-0.2-1.9-0.5c-0.6-0.3-1.1-0.8-1.5-1.4
			C-1973.6-520.3-1973.8-521.1-1973.8-521.9z M-1971.8-524.2c-0.6,0.5-0.8,1.3-0.8,2.3c0,1,0.3,1.8,0.8,2.3s1.2,0.8,2,0.8
			c0.5,0,1-0.1,1.4-0.3l-1.4-1.5l0.8-0.7l1.4,1.6c0.5-0.6,0.7-1.3,0.7-2.2c0-1-0.3-1.8-0.8-2.3s-1.2-0.8-2-0.8
			C-1970.6-525-1971.3-524.8-1971.8-524.2z"/>
		<path fill="#FFFFFF" d="M-1957.3-518.5c-0.5,0.5-1.2,0.8-2.1,0.8c-0.8,0-1.5-0.3-2.1-0.8c-0.5-0.5-0.8-1.2-0.8-2.1v-5.2h1.1v5.2
			c0,0.6,0.2,1.1,0.5,1.4c0.3,0.3,0.7,0.5,1.3,0.5c0.6,0,1-0.2,1.3-0.5c0.3-0.3,0.5-0.8,0.5-1.4v-5.2h1.1v5.2
			C-1956.4-519.7-1956.7-519-1957.3-518.5z"/>
		<path fill="#FFFFFF" d="M-1947.5-517.9h-4.8v-7.9h4.8v1h-3.7v2.4h3.4v1h-3.4v2.4h3.7V-517.9z"/>
		<path fill="#FFFFFF" d="M-1935.9-519.3l2.4-6.5h1.2l-3.1,7.9h-1.1l-3-7.9h1.2L-1935.9-519.3z"/>
		<path fill="#FFFFFF" d="M-1924.2-517.9l-0.9-2.2h-3.5l-0.8,2.2h-1.2l3.2-7.9h1.3l3.2,7.9H-1924.2z M-1926.8-524.7l-1.4,3.6h2.7
			L-1926.8-524.7z"/>
		<path fill="#FFFFFF" d="M-1914.8-517.9h-4.9v-7.9h1.1v6.9h3.8V-517.9z"/>
		<path fill="#FFFFFF" d="M-1906.6-517.9h-4.8v-7.9h4.8v1h-3.7v2.4h3.4v1h-3.4v2.4h3.7V-517.9z"/>
	</g>
</g>
<g>
	<g>
		<g>
			<g>
				<path fill="#E30613" d="M-970.9-364.8v-30.8l50.4-53.6h-49v-29.9h93.7v28.8l-52.7,55.5h53.6v30.2H-970.9z"/>
			</g>
			<path d="M-1099.1-422.4c0-13.6,3.7-25.9,10.2-35.7c-6.7-17.3-22.6-24.6-39.1-24.6c-15.4,0-26.5,5.1-35.4,18
				c-5.8-11.3-17.5-18-33.8-18c-12.4,0-27.2,6.4-32.9,16.6v-13.1h-33.4v114.4h35v-65.8c0-10.4,6.7-19.8,18.9-19.8
				c12.7,0,18.4,8.5,18.4,19.3v66.3h34.5v-66.1c0-10.1,6.7-19.6,19.1-19.6c12.4,0,18.2,8.5,18.2,19.3v66.3h33.8v-17.5
				C-1094.1-392.7-1099.1-406.4-1099.1-422.4z"/>
			<g>
				<path d="M-970.9-385.3c0,10.4,0.7,18,0.9,20.5h-33.6c-0.2-1.4-0.9-6.4-0.9-11c-5.3,7.8-16.8,13.6-30.6,13.6
					c-32.2,0-56.6-24.9-56.6-60.1c0-34.1,23-59.6,55.5-59.6c19.6,0,28.1,7.4,30.8,11.7v-61.2h34.5V-385.3z M-1030.7-393.6
					c13.6,0,25.8-9.7,25.8-28.5c0-19.1-12.2-28.3-25.8-28.3c-13.6,0-25.8,9.2-25.8,28.3C-1056.5-403.3-1044.3-393.6-1030.7-393.6z"
					/>
			</g>
		</g>
		<g>
			<path d="M-1261.1-312.5h-2.5v-17.5h2.5V-312.5z"/>
			<path d="M-1237.6-312.5h-2.5l-9.4-14.2v14.2h-2.4v-17.5h3.2l8.7,13.4v-13.4h2.4V-312.5z"/>
			<path d="M-1226-312.5h-2.4v-17.5h10.6v2.2h-8.2v5.6h7.4v2.3h-7.4V-312.5z"/>
			<path d="M-1211.2-321.2c0-1.4,0.2-2.7,0.8-3.9c0.5-1.2,1.2-2.1,2-2.9s1.8-1.3,2.8-1.7c1-0.4,2.1-0.6,3.2-0.6
				c1.1,0,2.2,0.2,3.2,0.6c1,0.4,2,1,2.8,1.7c0.8,0.7,1.5,1.7,2,2.9c0.5,1.2,0.8,2.5,0.8,3.9c0,1.9-0.4,3.5-1.3,4.9
				c-0.9,1.4-1.9,2.5-3.3,3.2c-1.3,0.7-2.7,1-4.2,1s-2.9-0.3-4.2-1c-1.3-0.7-2.4-1.7-3.3-3.2
				C-1210.8-317.7-1211.2-319.3-1211.2-321.2z M-1206.9-326.3c-1.2,1.2-1.8,2.9-1.8,5.1c0,2.2,0.6,3.9,1.8,5.1
				c1.2,1.2,2.7,1.8,4.5,1.8c1.7,0,3.2-0.6,4.5-1.8c1.2-1.2,1.8-2.9,1.8-5.1c0-2.2-0.6-3.9-1.8-5.1c-1.2-1.2-2.7-1.8-4.5-1.8
				C-1204.2-328.1-1205.7-327.5-1206.9-326.3z"/>
			<path d="M-1176.5-312.5l-4-7.1h-2.6v7.1h-2.4v-17.5h6.6c1.6,0,2.9,0.5,3.9,1.5c1,1,1.5,2.2,1.5,3.7c0,1.3-0.4,2.3-1.1,3.2
				c-0.8,0.9-1.8,1.5-3.1,1.7l4.2,7.3H-1176.5z M-1183.1-321.8h3.7c1,0,1.8-0.3,2.4-0.8c0.6-0.5,0.9-1.3,0.9-2.2
				c0-0.9-0.3-1.7-0.9-2.2c-0.6-0.5-1.4-0.8-2.4-0.8h-3.7V-321.8z"/>
			<path d="M-1146.5-312.5h-2.4v-13.6l-6,13.6h-2.2l-5.9-13.6v13.6h-2.4v-17.5h3.3l6.2,14.2l6.2-14.2h3.2V-312.5z"/>
			<path d="M-1125.2-312.5l-1.9-4.9h-7.7l-1.8,4.9h-2.6l6.9-17.5h2.8l6.9,17.5H-1125.2z M-1131-327.4l-3,7.8h6L-1131-327.4z"/>
			<path d="M-1108.5-312.1c-2.4,0-4.4-0.8-6.1-2.5c-1.7-1.6-2.5-3.9-2.5-6.6c0-1.9,0.4-3.5,1.3-4.9c0.9-1.4,1.9-2.5,3.2-3.1
				c1.3-0.7,2.7-1,4.2-1c2,0,3.6,0.5,5,1.5c1.4,1,2.3,2.3,2.7,4.1l-2.2,0.8c-0.3-1.3-1-2.3-1.9-3c-0.9-0.7-2.1-1.1-3.5-1.1
				c-1.7,0-3.2,0.6-4.4,1.8c-1.2,1.2-1.8,2.9-1.8,5.1c0,2.2,0.6,3.9,1.8,5.1c1.2,1.2,2.7,1.8,4.4,1.8c1.4,0,2.6-0.4,3.6-1.1
				s1.6-1.8,2-3l2.1,0.8c-0.5,1.7-1.4,3.1-2.7,4.1C-1104.8-312.6-1106.5-312.1-1108.5-312.1z"/>
			<path d="M-1090.3-312.5h-2.5v-17.5h2.5V-312.5z"/>
			<path d="M-1082.1-321.2c0-1.4,0.2-2.7,0.8-3.9c0.5-1.2,1.2-2.1,2-2.9s1.8-1.3,2.8-1.7c1-0.4,2.1-0.6,3.2-0.6
				c1.1,0,2.2,0.2,3.2,0.6c1,0.4,2,1,2.8,1.7c0.8,0.7,1.5,1.7,2,2.9c0.5,1.2,0.8,2.5,0.8,3.9c0,1.9-0.4,3.5-1.3,4.9
				c-0.9,1.4-1.9,2.5-3.3,3.2c-1.3,0.7-2.7,1-4.2,1c-1.5,0-2.9-0.3-4.2-1c-1.3-0.7-2.4-1.7-3.3-3.2
				C-1081.6-317.7-1082.1-319.3-1082.1-321.2z M-1077.8-326.3c-1.2,1.2-1.8,2.9-1.8,5.1c0,2.2,0.6,3.9,1.8,5.1
				c1.2,1.2,2.7,1.8,4.5,1.8c1.7,0,3.2-0.6,4.5-1.8c1.2-1.2,1.8-2.9,1.8-5.1c0-2.2-0.6-3.9-1.8-5.1c-1.2-1.2-2.7-1.8-4.5-1.8
				C-1075-328.1-1076.5-327.5-1077.8-326.3z M-1069-334.1l-3.4,2.9h-2.3l2.5-2.9H-1069z"/>
			<path d="M-1042-312.5h-2.5l-9.4-14.2v14.2h-2.4v-17.5h3.2l8.7,13.4v-13.4h2.4V-312.5z"/>
			<path d="M-1022.7-321.2c0-1.4,0.2-2.7,0.8-3.9c0.5-1.2,1.2-2.1,2-2.9c0.8-0.7,1.8-1.3,2.8-1.7c1-0.4,2.1-0.6,3.2-0.6
				c1.1,0,2.2,0.2,3.2,0.6c1,0.4,2,1,2.8,1.7c0.8,0.7,1.5,1.7,2,2.9c0.5,1.2,0.8,2.5,0.8,3.9c0,2.6-0.8,4.8-2.5,6.5l2,2.3l-1.6,1.5
				l-2.1-2.3c-1.4,0.8-2.9,1.3-4.6,1.3c-1.5,0-2.9-0.3-4.2-1c-1.3-0.7-2.4-1.7-3.3-3.2C-1022.2-317.7-1022.7-319.3-1022.7-321.2z
				 M-1018.3-326.3c-1.2,1.2-1.8,2.9-1.8,5.1c0,2.2,0.6,3.9,1.8,5.1c1.2,1.2,2.7,1.8,4.5,1.8c1.1,0,2.1-0.3,3.1-0.8l-3-3.4l1.7-1.5
				l3.1,3.4c1-1.2,1.6-2.8,1.6-4.7c0-2.2-0.6-3.9-1.8-5.1c-1.2-1.2-2.7-1.8-4.5-1.8C-1015.6-328.1-1017.1-327.5-1018.3-326.3z"/>
			<path d="M-986.3-313.8c-1.2,1.1-2.7,1.7-4.5,1.7s-3.3-0.6-4.5-1.7c-1.2-1.1-1.8-2.7-1.8-4.7v-11.5h2.4v11.4c0,1.3,0.3,2.4,1,3.1
				c0.7,0.7,1.6,1.1,2.9,1.1c1.2,0,2.2-0.4,2.9-1.1c0.7-0.7,1-1.7,1-3.1v-11.4h2.4v11.5C-984.5-316.4-985.1-314.9-986.3-313.8z"/>
			<path d="M-964.8-312.5h-10.6v-17.5h10.6v2.2h-8.2v5.4h7.4v2.3h-7.4v5.3h8.2V-312.5z"/>
			<path d="M-939.3-315.6l5.3-14.4h2.5l-6.7,17.5h-2.4l-6.6-17.5h2.6L-939.3-315.6z"/>
			<path d="M-913.5-312.5l-1.9-4.9h-7.7l-1.8,4.9h-2.6l6.9-17.5h2.8l6.9,17.5H-913.5z M-919.3-327.4l-3,7.8h6L-919.3-327.4z"/>
			<path d="M-892.9-312.5h-10.7v-17.5h2.4v15.2h8.3V-312.5z"/>
			<path d="M-874.9-312.5h-10.6v-17.5h10.6v2.2h-8.2v5.4h7.4v2.3h-7.4v5.3h8.2V-312.5z"/>
		</g>
	</g>
	
		<line fill="none" stroke="#009FE3" stroke-width="1.4023" stroke-miterlimit="10" x1="-1263.6" y1="-531.4" x2="-1263.6" y2="-313.1"/>
	
		<line fill="none" stroke="#009FE3" stroke-width="1.4023" stroke-miterlimit="10" x1="-874.9" y1="-531.4" x2="-874.9" y2="-313.1"/>
	
		<line fill="none" stroke="#009FE3" stroke-width="1.4023" stroke-miterlimit="10" x1="-970.9" y1="-531.4" x2="-970.9" y2="-313.1"/>
	
		<line fill="none" stroke="#009FE3" stroke-width="1.4023" stroke-miterlimit="10" x1="-1085.7" y1="-531.4" x2="-1085.7" y2="-313.1"/>
	
		<line fill="none" stroke="#009FE3" stroke-width="1.4023" stroke-miterlimit="10" x1="-1118.9" y1="-531.4" x2="-1118.9" y2="-313.1"/>
	<line fill="none" stroke="#009FE3" stroke-width="1.4023" stroke-miterlimit="10" x1="-1156" y1="-531.4" x2="-1156" y2="-313.1"/>
	
		<line fill="none" stroke="#009FE3" stroke-width="1.4023" stroke-miterlimit="10" x1="-1191.2" y1="-531.4" x2="-1191.2" y2="-313.1"/>
	
		<line fill="none" stroke="#009FE3" stroke-width="1.4023" stroke-miterlimit="10" x1="-1228.6" y1="-531.4" x2="-1228.6" y2="-313.1"/>
	
		<line fill="none" stroke="#009FE3" stroke-width="1.4023" stroke-miterlimit="10" x1="-1298.5" y1="-531.4" x2="-1298.5" y2="-277.5"/>
	
		<line fill="none" stroke="#009FE3" stroke-width="1.2432" stroke-miterlimit="10" x1="-1261.9" y1="-479.2" x2="-874.9" y2="-479.2"/>
	
		<line fill="none" stroke="#009FE3" stroke-width="1.2432" stroke-miterlimit="10" x1="-1263.6" y1="-364.8" x2="-874.9" y2="-364.8"/>
	
		<line fill="none" stroke="#009FE3" stroke-width="1.2432" stroke-miterlimit="10" x1="-1263.9" y1="-329.9" x2="-874.9" y2="-329.9"/>
	
		<line fill="none" stroke="#009FE3" stroke-width="1.2432" stroke-miterlimit="10" x1="-1298.5" y1="-277.5" x2="-874.9" y2="-277.5"/>
	
		<line fill="none" stroke="#009FE3" stroke-width="1.2432" stroke-miterlimit="10" x1="-1263.6" y1="-312.5" x2="-874.9" y2="-312.5"/>
	
		<line fill="none" stroke="#009FE3" stroke-width="1.2432" stroke-miterlimit="10" x1="-1263.6" y1="-531.4" x2="-874.9" y2="-531.4"/>
	<rect x="-1298.5" y="-364.8" fill="#E3E3E3" width="34.9" height="34.9"/>
	<rect x="-874.9" y="-566.4" fill="#E3E3E3" width="34.9" height="34.9"/>
	
		<rect x="-1298.5" y="-566.4" fill="none" stroke="#009FE3" stroke-width="1.3267" stroke-miterlimit="10" width="458.6" height="288.9"/>
</g>
<g>
	<g>
		<path fill="#E30613" d="M292.7,166.6v-30.8l50.4-53.6h-49V52.2h93.7V81L335,136.5h53.6v30.2H292.7z"/>
	</g>
	<path d="M164.5,109.1c0-13.6,3.7-25.9,10.2-35.7c-6.7-17.3-22.6-24.6-39.1-24.6c-15.4,0-26.5,5.1-35.4,18
		c-5.8-11.3-17.5-18-33.8-18c-12.4,0-27.2,6.4-32.9,16.6V52.2H0v114.4h35v-65.8C35,90.5,41.7,81,53.9,81c12.7,0,18.4,8.5,18.4,19.3
		v66.3h34.5v-66.1c0-10.1,6.7-19.6,19.1-19.6c12.4,0,18.2,8.5,18.2,19.3v66.3h33.8v-17.5C169.5,138.8,164.5,125,164.5,109.1z"/>
	<g>
		<path d="M292.7,146.1c0,10.4,0.7,18,0.9,20.5H260c-0.2-1.4-0.9-6.4-0.9-11c-5.3,7.8-16.8,13.6-30.6,13.6
			c-32.2,0-56.6-24.9-56.6-60.1c0-34.1,23-59.6,55.5-59.6c19.6,0,28.1,7.4,30.8,11.7V0h34.5V146.1z M232.9,137.9
			c13.6,0,25.8-9.7,25.8-28.5c0-19.1-12.2-28.3-25.8-28.3c-13.6,0-25.8,9.2-25.8,28.3C207.1,128.2,219.3,137.9,232.9,137.9z"/>
	</g>
</g>
<g>
	<g>
		<g>
			<path fill="#E30613" d="M292.7-365.5v-30.8l50.4-53.6h-49v-29.9h93.7v28.8L335-395.7h53.6v30.2H292.7z"/>
		</g>
		<path d="M164.5-423.1c0-13.6,3.7-25.9,10.2-35.7c-6.7-17.3-22.6-24.6-39.1-24.6c-15.4,0-26.5,5.1-35.4,18
			c-5.8-11.3-17.5-18-33.8-18c-12.4,0-27.2,6.4-32.9,16.6v-13.1H0v114.4h35v-65.8c0-10.4,6.7-19.8,18.9-19.8
			c12.7,0,18.4,8.5,18.4,19.3v66.3h34.5v-66.1c0-10.1,6.7-19.6,19.1-19.6c12.4,0,18.2,8.5,18.2,19.3v66.3h33.8v-17.5
			C169.5-393.4,164.5-407.2,164.5-423.1z"/>
		<g>
			<path d="M292.7-386c0,10.4,0.7,18,0.9,20.5H260c-0.2-1.4-0.9-6.4-0.9-11c-5.3,7.8-16.8,13.6-30.6,13.6
				c-32.2,0-56.6-24.9-56.6-60.1c0-34.1,23-59.6,55.5-59.6c19.6,0,28.1,7.4,30.8,11.7v-61.2h34.5V-386z M232.9-394.3
				c13.6,0,25.8-9.7,25.8-28.5c0-19.1-12.2-28.3-25.8-28.3c-13.6,0-25.8,9.2-25.8,28.3C207.1-404,219.3-394.3,232.9-394.3z"/>
		</g>
	</g>
	<g>
		<path d="M2.5-313.2H0v-17.5h2.5V-313.2z"/>
		<path d="M26-313.2h-2.5l-9.4-14.2v14.2h-2.4v-17.5h3.2l8.7,13.4v-13.4H26V-313.2z"/>
		<path d="M37.6-313.2h-2.4v-17.5h10.6v2.2h-8.2v5.6h7.4v2.3h-7.4V-313.2z"/>
		<path d="M52.4-321.9c0-1.4,0.2-2.7,0.8-3.9c0.5-1.2,1.2-2.1,2-2.9c0.8-0.7,1.8-1.3,2.8-1.7c1-0.4,2.1-0.6,3.2-0.6
			c1.1,0,2.2,0.2,3.2,0.6c1,0.4,2,1,2.8,1.7c0.8,0.7,1.5,1.7,2,2.9c0.5,1.2,0.8,2.5,0.8,3.9c0,1.9-0.4,3.5-1.3,4.9
			c-0.9,1.4-1.9,2.5-3.3,3.2c-1.3,0.7-2.7,1-4.2,1c-1.5,0-2.9-0.3-4.2-1c-1.3-0.7-2.4-1.7-3.3-3.2C52.8-318.4,52.4-320.1,52.4-321.9
			z M56.7-327c-1.2,1.2-1.8,2.9-1.8,5.1c0,2.2,0.6,3.9,1.8,5.1c1.2,1.2,2.7,1.8,4.5,1.8c1.7,0,3.2-0.6,4.5-1.8s1.8-2.9,1.8-5.1
			c0-2.2-0.6-3.9-1.8-5.1c-1.2-1.2-2.7-1.8-4.5-1.8C59.4-328.8,57.9-328.2,56.7-327z"/>
		<path d="M87.1-313.2l-4-7.1h-2.6v7.1h-2.4v-17.5h6.6c1.6,0,2.9,0.5,3.9,1.5c1,1,1.5,2.2,1.5,3.7c0,1.3-0.4,2.3-1.1,3.2
			c-0.8,0.9-1.8,1.5-3.1,1.7l4.2,7.3H87.1z M80.5-322.5h3.7c1,0,1.8-0.3,2.4-0.8c0.6-0.5,0.9-1.3,0.9-2.2c0-0.9-0.3-1.7-0.9-2.2
			c-0.6-0.5-1.4-0.8-2.4-0.8h-3.7V-322.5z"/>
		<path d="M117.1-313.2h-2.4v-13.6l-6,13.6h-2.2l-5.9-13.6v13.6h-2.4v-17.5h3.3l6.2,14.2l6.2-14.2h3.2V-313.2z"/>
		<path d="M138.4-313.2l-1.9-4.9h-7.7l-1.8,4.9h-2.6l6.9-17.5h2.8l6.9,17.5H138.4z M132.6-328.1l-3,7.8h6L132.6-328.1z"/>
		<path d="M155.1-312.8c-2.4,0-4.4-0.8-6.1-2.5c-1.7-1.6-2.5-3.9-2.5-6.6c0-1.9,0.4-3.5,1.3-4.9s1.9-2.5,3.2-3.1
			c1.3-0.7,2.7-1,4.2-1c2,0,3.6,0.5,5,1.5c1.4,1,2.3,2.3,2.7,4.1l-2.2,0.8c-0.3-1.3-1-2.3-1.9-3c-0.9-0.7-2.1-1.1-3.5-1.1
			c-1.7,0-3.2,0.6-4.4,1.8c-1.2,1.2-1.8,2.9-1.8,5.1c0,2.2,0.6,3.9,1.8,5.1s2.7,1.8,4.4,1.8c1.4,0,2.6-0.4,3.6-1.1
			c1-0.8,1.6-1.8,2-3l2.1,0.8c-0.5,1.7-1.4,3.1-2.7,4.1C158.7-313.3,157.1-312.8,155.1-312.8z"/>
		<path d="M173.3-313.2h-2.5v-17.5h2.5V-313.2z"/>
		<path d="M181.5-321.9c0-1.4,0.2-2.7,0.8-3.9c0.5-1.2,1.2-2.1,2-2.9c0.8-0.7,1.8-1.3,2.8-1.7c1-0.4,2.1-0.6,3.2-0.6
			c1.1,0,2.2,0.2,3.2,0.6c1,0.4,2,1,2.8,1.7c0.8,0.7,1.5,1.7,2,2.9c0.5,1.2,0.8,2.5,0.8,3.9c0,1.9-0.4,3.5-1.3,4.9
			c-0.9,1.4-1.9,2.5-3.3,3.2c-1.3,0.7-2.7,1-4.2,1c-1.5,0-2.9-0.3-4.2-1c-1.3-0.7-2.4-1.7-3.3-3.2
			C181.9-318.4,181.5-320.1,181.5-321.9z M185.8-327c-1.2,1.2-1.8,2.9-1.8,5.1c0,2.2,0.6,3.9,1.8,5.1c1.2,1.2,2.7,1.8,4.5,1.8
			c1.7,0,3.2-0.6,4.5-1.8c1.2-1.2,1.8-2.9,1.8-5.1c0-2.2-0.6-3.9-1.8-5.1c-1.2-1.2-2.7-1.8-4.5-1.8
			C188.5-328.8,187.1-328.2,185.8-327z M194.6-334.8l-3.4,2.9h-2.3l2.5-2.9H194.6z"/>
		<path d="M221.6-313.2h-2.5l-9.4-14.2v14.2h-2.4v-17.5h3.2l8.7,13.4v-13.4h2.4V-313.2z"/>
		<path d="M240.9-321.9c0-1.4,0.2-2.7,0.8-3.9c0.5-1.2,1.2-2.1,2-2.9c0.8-0.7,1.8-1.3,2.8-1.7c1-0.4,2.1-0.6,3.2-0.6
			c1.1,0,2.2,0.2,3.2,0.6c1,0.4,2,1,2.8,1.7c0.8,0.7,1.5,1.7,2,2.9c0.5,1.2,0.8,2.5,0.8,3.9c0,2.6-0.8,4.8-2.5,6.5l2,2.3l-1.6,1.5
			l-2.1-2.3c-1.4,0.8-2.9,1.3-4.6,1.3c-1.5,0-2.9-0.3-4.2-1c-1.3-0.7-2.4-1.7-3.3-3.2C241.4-318.4,240.9-320.1,240.9-321.9z
			 M245.2-327c-1.2,1.2-1.8,2.9-1.8,5.1c0,2.2,0.6,3.9,1.8,5.1c1.2,1.2,2.7,1.8,4.5,1.8c1.1,0,2.1-0.3,3.1-0.8l-3-3.4l1.7-1.5
			l3.1,3.4c1-1.2,1.6-2.8,1.6-4.7c0-2.2-0.6-3.9-1.8-5.1c-1.2-1.2-2.7-1.8-4.5-1.8C248-328.8,246.5-328.2,245.2-327z"/>
		<path d="M277.3-314.5c-1.2,1.1-2.7,1.7-4.5,1.7c-1.8,0-3.3-0.6-4.5-1.7c-1.2-1.1-1.8-2.7-1.8-4.7v-11.5h2.4v11.4
			c0,1.3,0.3,2.4,1,3.1c0.7,0.7,1.6,1.1,2.9,1.1c1.2,0,2.2-0.4,2.9-1.1c0.7-0.7,1-1.7,1-3.1v-11.4h2.4v11.5
			C279.1-317.2,278.5-315.6,277.3-314.5z"/>
		<path d="M298.8-313.2h-10.6v-17.5h10.6v2.2h-8.2v5.4h7.4v2.3h-7.4v5.3h8.2V-313.2z"/>
		<path d="M324.3-316.3l5.3-14.4h2.5l-6.7,17.5h-2.4l-6.6-17.5h2.6L324.3-316.3z"/>
		<path d="M350.1-313.2l-1.9-4.9h-7.7l-1.8,4.9H336l6.9-17.5h2.8l6.9,17.5H350.1z M344.3-328.1l-3,7.8h6L344.3-328.1z"/>
		<path d="M370.6-313.2H360v-17.5h2.4v15.2h8.3V-313.2z"/>
		<path d="M388.7-313.2H378v-17.5h10.6v2.2h-8.2v5.4h7.4v2.3h-7.4v5.3h8.2V-313.2z"/>
	</g>
</g>
</svg>
